<svg role="img" viewBox="0 0 50 50" xmlns="http://www.w3.org/2000/svg" id="Arxiv--Streamline-Simple-Icons" height="50" width="50">
  <desc>
    Arxiv Streamline Icon: https://streamlinehq.com
  </desc>
  <title>arXiv</title>
  <path d="M8.004791666666668 0a2.091041666666667 2.091041666666667 0 0 0 -1.9208333333333336 1.26625c-0.32 0.7681250000000001 -0.09125 1.3072916666666667 0.6120833333333334 2.3152083333333335l14.413541666666667 17.41604166666667 -2.1297916666666667 2.30375a2.165208333333333 2.165208333333333 0 0 0 0.00625 2.9643750000000004l2.5608333333333335 2.736458333333333 -11.331458333333334 13.425833333333333c-0.5839583333333334 0.6229166666666667 -0.9454166666666667 1.7145833333333333 -0.6189583333333333 2.4970833333333338a2.136041666666667 2.136041666666667 0 0 0 1.9968750000000002 1.3229166666666667 1.9027083333333334 1.9027083333333334 0 0 0 1.4356250000000002 -0.7093750000000001l12.047916666666667 -12.762500000000001 15.604583333333334 16.67729166666667a1.7764583333333335 1.7764583333333335 0 0 0 1.4239583333333334 0.5410416666666666 1.9947916666666667 1.9947916666666667 0 0 0 1.828541666666667 -1.27875c0.32854166666666673 -0.7854166666666668 -0.03541666666666667 -1.5629166666666667 -0.6375000000000001 -2.376458333333334l-14.691250000000002 -17.37875 2.215 -2.3541666666666665a2.0054166666666666 2.0054166666666666 0 0 0 0.018541666666666668 -2.7427083333333337L9.653333333333334 0.9664583333333333s-0.7777083333333334 -0.9447916666666668 -1.6 -0.9645833333333335zm0 0.5666666666666668h0.034583333333333334c0.4539583333333334 0.010833333333333334 1.0154166666666666 0.565625 1.1758333333333335 0.758125l0.010416666666666668 0.0125 0.010833333333333334 0.011458333333333334 21.18541666666667 22.896875000000005a1.440625 1.440625 0 0 1 -0.015000000000000001 1.96875l-2.2220833333333334 2.360416666666667 -3.1212500000000003 -3.6925000000000003 -17.915416666666665 -21.645833333333336c-0.6845833333333334 -0.9833333333333334 -0.7333333333333334 -1.288125 -0.54 -1.7520833333333334a1.5222916666666668 1.5222916666666668 0 0 1 1.3966666666666667 -0.916875Zm29.877083333333335 3.271041666666667a1.8270833333333334 1.8270833333333334 0 0 0 -1.3654166666666667 0.50375l-11.867083333333335 12.830000000000002 3.5300000000000002 3.8164583333333337 11.060208333333335 -13.570416666666667c0.6772916666666667 -0.9031250000000001 0.9979166666666667 -1.375625 0.6764583333333334 -2.1441666666666666a2.334375 2.334375 0 0 0 -2.0339583333333335 -1.4354166666666666zm-15.949375000000002 25.588125 2.7470833333333333 2.9447916666666667 -12.055000000000001 12.769791666666668a1.3529166666666668 1.3529166666666668 0 0 1 -1.033125 0.5416666666666667 1.5658333333333336 1.5658333333333336 0 0 1 -1.4708333333333334 -0.9727083333333334c-0.23312500000000003 -0.5587500000000001 0.07479166666666667 -1.4300000000000002 0.50875 -1.8922916666666667l0.010625 -0.011458333333333334 0.009791666666666667 -0.011458333333333334z" fill="#000000" stroke-width="2.0833"></path>
</svg>